<svg width="80" height="80" viewBox="0 0 80 80" fill="none" xmlns="http://www.w3.org/2000/svg">
<g opacity="0.7" clip-path="url(#clip0_4_906)">
<path d="M0.0136719 39.3164C0.524633 38.0735 1.4637 37.5764 2.78944 37.6178C4.39137 37.6731 6.00711 37.604 7.60905 37.6454C11.0477 37.7145 13.9615 40.3936 14.3758 43.8322C14.4587 44.4951 14.4863 45.158 14.4863 45.8208C14.4863 54.6176 14.4863 63.4007 14.4863 72.1975C14.4863 73.468 14.3482 74.7247 13.7958 75.8847C12.8291 77.9009 11.2686 79.2267 9.1005 79.8205C8.92097 79.8757 8.75526 79.931 8.57573 79.9862C5.91044 79.9862 3.24516 79.9724 0.579872 80C0.11034 80 0.0136719 79.9034 0.0136719 79.4338C0.0136719 66.066 0.0136719 52.6843 0.0136719 39.3164Z" fill="url(#paint0_linear_4_906)"/>
<path d="M37.5486 75.3185C31.7347 75.3185 25.9208 75.3185 20.1069 75.3185C19.0297 75.3185 19.0159 75.3185 19.0159 74.269C19.0159 64.5745 19.0159 54.8801 19.0021 45.1856C19.0021 44.5642 19.1954 44.1913 19.7478 43.8599C23.6974 41.4846 27.9094 40.7665 32.3976 41.8298C35.0214 42.4651 37.4105 43.6389 39.3853 45.517C40.4763 46.5528 41.6639 47.0499 43.2106 47.0223C46.884 46.9394 50.5574 46.9809 54.2308 47.0085C56.468 47.0223 58.1804 48.3618 58.7742 50.53C59.3128 52.4772 58.4566 54.6315 56.7028 55.7363C55.9018 56.2472 55.0318 56.4406 54.0789 56.4406C48.0578 56.4268 42.0368 56.4406 36.0295 56.4406C35.3805 56.4406 34.759 56.4958 34.1928 56.8963C33.3919 57.4625 33.1019 58.2496 33.2676 59.1749C33.4195 60.0725 34.0271 60.6249 34.8557 60.9149C35.2562 61.053 35.6567 61.0668 36.0848 61.0668C42.3958 61.0668 48.7207 61.0807 55.0318 61.053C57.117 61.053 58.7466 60.183 60.0309 58.4982C62.1852 55.6672 64.4638 52.9329 66.701 50.1709C68.3582 48.1133 70.0292 46.0694 71.6725 44.0118C72.8464 42.5479 74.904 41.9403 76.7683 42.5479C78.5912 43.1418 79.8893 44.8265 79.9722 46.7047C80.0274 47.8923 79.7236 48.9695 79.047 49.95C75.8983 54.521 72.7497 59.1059 69.6149 63.6907C68.3582 65.5274 67.1291 67.3779 65.831 69.2008C63.0829 73.0814 59.3266 75.2495 54.5484 75.3185C48.8864 75.3738 43.2106 75.3185 37.5486 75.3185Z" fill="url(#paint1_linear_4_906)"/>
<path d="M70.4711 32.9916C69.0349 33.0882 67.9163 32.3701 66.8944 31.4172C62.9172 27.7024 58.9261 24.0014 54.9351 20.3004C51.8832 17.4694 48.8312 14.6522 45.7931 11.835C44.9092 11.0202 44.8816 10.9788 43.984 11.7659C42.5063 13.0779 41.0701 14.4312 39.6201 15.7708C36.3196 18.7951 33.0328 21.8195 29.7323 24.8576C27.9508 26.501 26.1832 28.1858 24.4017 29.8429C23.5731 30.6025 22.7584 31.3758 21.8883 32.0939C20.245 33.4335 17.483 33.2954 15.8949 31.8453C14.1687 30.2572 13.8234 27.6886 15.0249 25.8243C15.7706 24.6505 16.903 23.8771 17.8697 22.9519C19.7755 21.129 21.7641 19.3889 23.7112 17.6075C27.1361 14.4865 30.5747 11.3655 33.9995 8.24445C36.4162 6.03489 38.902 3.88056 41.222 1.56052C43.3211 -0.538565 46.525 -0.27618 48.265 1.43623C50.9441 4.0739 53.7889 6.54585 56.5509 9.10066C60.4728 12.705 64.3948 16.3094 68.3168 19.8999C70.2502 21.6675 72.2526 23.3661 74.0755 25.2443C76.3403 27.5643 75.3598 31.6382 72.3078 32.743C71.7416 32.9363 71.134 33.033 70.4711 32.9916Z" fill="url(#paint2_linear_4_906)"/>
<path d="M44.8264 33.0054C43.404 33.0054 41.9816 32.9916 40.5592 33.0054C38.8744 33.0192 37.8663 34.0135 37.8248 35.7121C37.811 36.5821 37.7972 37.4521 37.8248 38.3359C37.8386 38.916 37.6729 39.0126 37.1481 38.7641C34.2205 37.3278 31.0857 36.8583 27.8542 36.8721C26.7494 36.8721 25.6722 37.1069 24.5813 37.3002C24.3051 37.3555 23.9598 37.5626 23.7665 37.2035C23.5732 36.8445 23.8079 36.5545 24.0703 36.3059C25.6446 34.8697 27.2189 33.4197 28.7932 31.9835C30.6714 30.2572 32.5219 28.531 34.4 26.8048C37.7143 23.7528 41.0287 20.7147 44.3292 17.6627C44.6883 17.3313 44.9645 17.3175 45.3235 17.6489C46.6493 18.878 48.0026 20.0932 49.3284 21.3223C53.6094 25.2719 57.8904 29.2353 62.1576 33.1987C63.221 34.1792 64.2705 35.1735 65.3477 36.1402C65.762 36.5131 65.9553 36.9412 65.9415 37.5212C65.9001 39.4269 65.9139 41.3327 65.9277 43.2384C65.9277 43.6803 65.8172 44.0394 65.541 44.3708C64.7262 45.3651 63.9115 46.3594 63.1243 47.3675C62.8205 47.7542 62.6134 47.7404 62.3648 47.2985C60.4176 43.9013 57.3933 42.4236 53.568 42.3822C51.5517 42.3546 51.8279 42.6584 51.8141 40.6284C51.8003 38.9988 51.8141 37.3693 51.8141 35.7397C51.8003 33.9444 50.8751 33.0192 49.0936 33.0054C47.6712 32.9916 46.2488 33.0054 44.8264 33.0054Z" fill="url(#paint3_linear_4_906)"/>
<path d="M70.623 8.70017C70.623 10.8131 70.623 12.926 70.623 15.0389C70.623 15.2184 70.7059 15.4531 70.5126 15.536C70.3054 15.6327 70.1949 15.3979 70.0706 15.2874C67.6677 13.0779 65.2786 10.8683 62.8757 8.65874C60.9148 6.84966 58.9538 5.05439 56.9928 3.25912C56.4266 2.73435 56.3575 1.79529 56.9099 1.00813C57.3518 0.35907 57.9871 1.59685e-05 58.7742 1.59685e-05C61.9643 -0.0137938 65.1544 -0.0276036 68.3582 1.59685e-05C69.7254 0.0138257 70.623 0.95289 70.6368 2.33387C70.6368 4.47438 70.623 6.58727 70.623 8.70017Z" fill="url(#paint4_linear_4_906)"/>
<path d="M44.8266 37.6455C45.4204 37.6455 46.0142 37.6593 46.6218 37.6455C47.0361 37.6317 47.2018 37.825 47.2018 38.2255C47.188 39.4131 47.188 40.6146 47.2018 41.8022C47.2018 42.2165 47.0085 42.3822 46.608 42.3684C45.4342 42.3546 44.2604 42.3684 43.1003 42.3684C42.6722 42.3684 42.4651 42.1612 42.4651 41.7331C42.4651 40.5593 42.4651 39.3855 42.4651 38.2255C42.4651 37.825 42.6308 37.6317 43.0451 37.6455C43.6251 37.6455 44.2327 37.6455 44.8266 37.6455Z" fill="url(#paint5_linear_4_906)"/>
</g>
<defs>
<linearGradient id="paint0_linear_4_906" x1="0.0136719" y1="39.992" x2="79.9786" y2="39.992" gradientUnits="userSpaceOnUse">
<stop stop-color="#FCEABB"/>
<stop offset="1" stop-color="#F8B500"/>
</linearGradient>
<linearGradient id="paint1_linear_4_906" x1="0.0136719" y1="39.992" x2="79.9786" y2="39.992" gradientUnits="userSpaceOnUse">
<stop stop-color="#FCEABB"/>
<stop offset="1" stop-color="#F8B500"/>
</linearGradient>
<linearGradient id="paint2_linear_4_906" x1="0.0136719" y1="39.992" x2="79.9786" y2="39.992" gradientUnits="userSpaceOnUse">
<stop stop-color="#FCEABB"/>
<stop offset="1" stop-color="#F8B500"/>
</linearGradient>
<linearGradient id="paint3_linear_4_906" x1="0.0136719" y1="39.992" x2="79.9786" y2="39.992" gradientUnits="userSpaceOnUse">
<stop stop-color="#FCEABB"/>
<stop offset="1" stop-color="#F8B500"/>
</linearGradient>
<linearGradient id="paint4_linear_4_906" x1="0.0136719" y1="39.992" x2="79.9786" y2="39.992" gradientUnits="userSpaceOnUse">
<stop stop-color="#FCEABB"/>
<stop offset="1" stop-color="#F8B500"/>
</linearGradient>
<linearGradient id="paint5_linear_4_906" x1="42.4651" y1="40.007" x2="47.2018" y2="40.007" gradientUnits="userSpaceOnUse">
<stop stop-color="#FCEABB"/>
<stop offset="1" stop-color="#F8B500"/>
</linearGradient>
<clipPath id="clip0_4_906">
<rect width="80" height="80" fill="white"/>
</clipPath>
</defs>
</svg>
