<svg width="71" height="80" viewBox="0 0 71 80" fill="none" xmlns="http://www.w3.org/2000/svg">
<g opacity="0.7" clip-path="url(#clip0_4_915)">
<path d="M11.0635 80C9.8204 79.489 9.37841 78.5497 9.37841 77.2238C9.40603 61.2569 9.39222 45.2901 9.39222 29.3094C9.39222 28.1768 9.39222 28.1768 8.27343 28.1768C6.40879 28.1768 4.55796 28.1768 2.69332 28.1768C1.33973 28.1768 0.524815 27.721 0.179511 26.6713C-0.207229 25.5525 0.096638 24.5995 0.994428 23.826C2.73476 22.3066 4.46128 20.7597 6.20161 19.2265C8.28725 17.3757 10.4005 15.5249 12.5 13.674C15 11.4779 17.5 9.28177 19.9861 7.07182C22.3204 5 24.6685 2.94199 26.9889 0.84254C28.2182 -0.262433 29.5718 -0.303869 30.8011 0.787292C33.7016 3.35635 36.6436 5.89779 39.5442 8.46685C42.5 11.0774 45.4419 13.7155 48.3977 16.326C51.2016 18.7983 54.0193 21.2707 56.837 23.7293C57.7071 24.489 58.0939 25.5801 57.7486 26.5608C57.3757 27.6243 56.5607 28.163 55.29 28.163C53.3425 28.163 51.3812 28.1906 49.4337 28.1492C48.7154 28.1354 48.4944 28.384 48.5497 29.0608C48.5911 29.6823 48.5497 30.3039 48.5635 30.9254C48.5773 31.4227 48.3701 31.6022 47.8729 31.616C45.6077 31.6851 43.3978 32.0442 41.2292 32.6519C37.279 33.7569 33.8121 35.7044 30.7734 38.4392C27.3618 41.5055 24.8895 45.2348 23.4116 49.5718C22.4447 52.4033 21.9475 55.3177 22.0027 58.3011C22.0994 64.1575 23.895 69.4337 27.4309 74.116C29.0469 76.2431 30.9668 78.0249 33.0663 79.6409C33.1906 79.7376 33.3011 79.8619 33.4116 79.9724C25.953 80 18.5082 80 11.0635 80Z" fill="url(#paint0_linear_4_915)"/>
<path d="M46.0773 80C44.8895 79.7238 43.6878 79.6133 42.5138 79.268C38.9088 78.2182 35.732 76.4088 33.0939 73.7707C29.2817 69.9724 27.0856 65.3729 26.6298 59.9862C26.2983 56.105 26.9337 52.3757 28.5911 48.8674C30.5663 44.6685 33.6187 41.395 37.6519 39.0608C40.9116 37.1823 44.4475 36.2155 48.1629 36.2017C54.5303 36.174 59.9999 38.4669 64.406 43.1216C67.6795 46.5746 69.6132 50.6906 70.2209 55.4282C70.2347 55.5801 70.3038 55.7321 70.3452 55.8978C70.3452 57.4171 70.3452 58.9365 70.3452 60.442C70.3038 60.5939 70.2347 60.7459 70.2209 60.8978C70.069 62.5553 69.6546 64.1713 69.0469 65.7044C66.0773 73.1906 60.6353 77.8453 52.79 79.6685C52.127 79.8204 51.4364 79.9033 50.7596 80.0138C49.1988 80 47.6381 80 46.0773 80ZM46.4778 62.8591C46.4778 64.1713 46.4917 65.4834 46.4778 66.7818C46.4778 67.5553 46.243 67.721 45.4972 67.5C44.6546 67.2376 43.9088 66.7956 43.1491 66.3536C42.2375 65.8287 41.1602 66.105 40.6215 66.989C40.1243 67.8039 40.4005 69.0193 41.2292 69.558C42.4309 70.3315 43.6878 70.9807 45.1243 71.2431C46.4779 71.4917 46.464 71.547 46.4917 72.9006C46.5193 74.0608 47.1132 74.7376 48.1629 74.779C49.337 74.8343 50.0966 74.1713 50.1933 73.0111C50.2209 72.6657 50.2209 72.3204 50.2071 71.9751C50.1795 71.4917 50.3729 71.2155 50.8563 71.0773C53.4254 70.2762 55.1104 68.5221 56.0773 66.0635C57.2789 62.9558 56.464 59.1298 53.3149 57.1547C52.5414 56.6713 51.7403 56.3122 50.8839 56.0359C50.4972 55.9116 50.2348 55.7321 50.2348 55.2762C50.2348 53.2321 50.2348 51.1878 50.2348 49.1437C50.2348 48.6326 50.4834 48.5635 50.8977 48.7431C51.2845 48.9088 51.5745 49.1989 51.9198 49.4475C52.5828 49.9309 53.453 49.9586 54.116 49.5304C54.7237 49.1437 55.0552 48.3564 54.8894 47.6105C54.7513 46.9475 54.3093 46.4779 53.7707 46.0912C53.1353 45.6354 52.4447 45.1934 51.685 45.0414C50.5662 44.8204 50.0828 44.337 50.1657 43.1216C50.2209 42.1685 49.185 41.395 48.2458 41.4503C47.2651 41.5055 46.5607 42.2376 46.5193 43.2597C46.5055 43.5635 46.5055 43.8536 46.5193 44.1575C46.5331 44.5856 46.3674 44.8204 45.9392 44.9724C43.7569 45.7044 42.2928 47.1823 41.4364 49.3094C40.4005 51.8923 41.2292 55.0138 43.4806 56.6437C44.2265 57.1823 44.9999 57.6796 45.8563 58.0249C46.3397 58.2182 46.5193 58.5221 46.5055 59.0332C46.464 60.2762 46.4778 61.5746 46.4778 62.8591Z" fill="url(#paint1_linear_4_915)"/>
<path d="M50.1933 63.4807C50.1933 62.5 50.2071 61.5055 50.1933 60.5248C50.1795 59.9309 50.442 59.8619 50.9116 60.0967C52.1547 60.7044 52.7486 61.7541 52.79 63.0801C52.8453 64.6547 52.1685 65.9116 50.9254 66.8785C50.7734 67.0028 50.5801 67.1547 50.3591 67.0718C50.1243 66.9751 50.1933 66.7127 50.1933 66.5193C50.1933 65.4972 50.1933 64.4889 50.1933 63.4807Z" fill="url(#paint2_linear_4_915)"/>
<path d="M46.4779 51.4503C46.4779 52.0856 46.4779 52.7348 46.4779 53.3702C46.4779 53.8812 46.2707 53.9641 45.8425 53.6878C44.6408 52.9282 44.4337 50.9254 45.4419 49.6685C45.5386 49.5442 45.6491 49.4199 45.7734 49.3232C45.9254 49.1851 46.0635 48.9779 46.2845 49.047C46.5193 49.1298 46.4779 49.3785 46.4779 49.5856C46.4779 50.221 46.4779 50.8425 46.4779 51.4503Z" fill="url(#paint3_linear_4_915)"/>
</g>
<defs>
<linearGradient id="paint0_linear_4_915" x1="0.0148926" y1="40.0024" x2="70.3452" y2="40.0024" gradientUnits="userSpaceOnUse">
<stop stop-color="#FCEABB"/>
<stop offset="1" stop-color="#F8B500"/>
</linearGradient>
<linearGradient id="paint1_linear_4_915" x1="0.0148926" y1="40.0024" x2="70.3452" y2="40.0024" gradientUnits="userSpaceOnUse">
<stop stop-color="#FCEABB"/>
<stop offset="1" stop-color="#F8B500"/>
</linearGradient>
<linearGradient id="paint2_linear_4_915" x1="0.0148926" y1="40.0024" x2="70.3452" y2="40.0024" gradientUnits="userSpaceOnUse">
<stop stop-color="#FCEABB"/>
<stop offset="1" stop-color="#F8B500"/>
</linearGradient>
<linearGradient id="paint3_linear_4_915" x1="0.0148926" y1="40.0024" x2="70.3452" y2="40.0024" gradientUnits="userSpaceOnUse">
<stop stop-color="#FCEABB"/>
<stop offset="1" stop-color="#F8B500"/>
</linearGradient>
<clipPath id="clip0_4_915">
<rect width="70.3315" height="80" fill="white"/>
</clipPath>
</defs>
</svg>
