<svg width="80" height="80" viewBox="0 0 80 80" fill="none" xmlns="http://www.w3.org/2000/svg">
<g opacity="0.7" clip-path="url(#clip0_4_900)">
<path d="M24.5399 0C36.1677 0 47.7955 0 59.4233 0C59.4233 0.759537 59.4372 1.51907 59.4372 2.27861C59.4372 7.36061 59.4372 12.4288 59.4372 17.5108C59.4372 18.4084 59.6305 19.1956 60.3762 19.7756C60.9424 20.2175 61.6053 20.2589 62.2682 20.2589C67.7368 20.2589 73.2055 20.2589 78.6742 20.2589C79.6823 20.2589 79.7099 20.2866 79.7099 21.3085C79.7099 38.4878 79.7099 55.681 79.7099 72.8603C79.7099 76.9204 76.6718 79.9862 72.6255 79.9862C60.68 80 48.7346 79.9862 36.7891 79.9862C36.5544 79.9862 36.292 80.0552 36.0434 79.8205C36.2644 79.6271 36.4439 79.4614 36.6372 79.3095C42.2302 74.9871 45.5031 69.2974 46.5664 62.3235C46.746 61.1773 46.7322 61.1773 47.8922 61.1773C53.8028 61.1773 59.6995 61.1773 65.6101 61.1773C65.9139 61.1773 66.2039 61.1911 66.5078 61.1635C67.6816 61.0392 68.5654 60.1277 68.6345 58.9953C68.7035 57.9182 67.9992 56.9791 66.8668 56.6753C66.4387 56.551 65.9968 56.5786 65.5687 56.5786C59.5891 56.5786 53.6232 56.5648 47.6436 56.5924C46.9807 56.5924 46.7045 56.3853 46.6079 55.7224C46.235 52.9467 45.4755 50.2814 44.274 47.7542C44.0531 47.2847 44.1912 47.1189 44.6745 47.1327C44.8817 47.1466 45.0888 47.1327 45.2959 47.1327C52.0765 47.1327 58.8571 47.1327 65.6239 47.1327C66.0382 47.1327 66.4525 47.1466 66.853 47.0499C67.8611 46.8013 68.5654 45.9727 68.6345 44.937C68.7035 43.9565 68.0959 43.0589 67.1154 42.6998C66.6044 42.5065 66.0797 42.5203 65.5549 42.5203C57.6695 42.5203 49.7979 42.5065 41.9126 42.5341C41.1392 42.5341 40.6421 42.2717 40.1449 41.7055C37.6868 38.8883 34.7039 36.7616 31.279 35.2978C27.578 33.7097 23.6975 32.9915 19.6512 33.2263C18.8226 33.2815 18.726 33.1849 18.726 32.3563C18.726 23.808 18.726 15.2598 18.7398 6.71155C18.7398 4.98533 19.4441 3.50768 20.5903 2.22337C21.6536 1.03573 23.007 0.372864 24.5399 0ZM49.1903 33.0606C53.6509 33.0606 58.0976 33.0606 62.5582 33.0606C63.801 33.0606 65.0439 33.0744 66.273 33.0468C67.3778 33.0192 68.1925 32.4391 68.4964 31.5139C69.0488 29.8567 67.8887 28.4481 65.9416 28.4481C54.8109 28.4343 43.6664 28.4481 32.5357 28.4481C32.1214 28.4481 31.7071 28.4896 31.3205 28.6277C30.3676 28.9867 29.7461 29.8843 29.8014 30.8648C29.8566 31.9006 30.5471 32.743 31.569 32.9639C31.9419 33.0468 32.3424 33.0606 32.7291 33.0606C38.2115 33.0606 43.694 33.0606 49.1903 33.0606Z" fill="url(#paint0_linear_4_900)"/>
<path d="M-0.000106242 56.6615C0.262279 55.1977 0.510855 53.7338 0.994197 52.3114C2.94138 46.6494 6.57335 42.4374 11.973 39.8412C17.704 37.0792 23.5732 36.9549 29.3871 39.4545C35.0491 41.885 39.0263 46.0556 41.0149 51.9109C43.5697 59.4511 42.2854 66.425 37.2034 72.5289C33.1572 77.3762 27.8542 79.9034 21.4741 80C14.8454 80.1105 9.40435 77.5557 5.05427 72.6532C2.29232 69.5322 0.676573 65.8312 0.110372 61.6883C0.0827524 61.4811 0.0275133 61.2878 -0.013916 61.0806C-0.000106242 59.603 -0.000106242 58.1253 -0.000106242 56.6615ZM30.989 54.7419C30.989 53.6648 30.3952 52.8362 29.4423 52.5324C28.4204 52.2148 27.6056 52.5738 26.8875 53.2919C24.0703 56.1229 21.2393 58.9401 18.4359 61.7711C17.9802 62.2268 17.6764 62.2959 17.2069 61.7987C16.4473 60.9702 15.6187 60.1968 14.8316 59.4096C14.5554 59.1335 14.2516 58.8849 13.8787 58.7606C12.8844 58.443 11.8625 58.802 11.2963 59.672C10.7025 60.5835 10.7853 61.6883 11.5863 62.503C13.0501 63.9945 14.5278 65.4721 16.0054 66.936C17.1654 68.096 18.4912 68.1374 19.6512 66.9912C23.2003 63.4697 26.7356 59.9206 30.2709 56.3853C30.7128 55.9158 30.9614 55.322 30.989 54.7419Z" fill="url(#paint1_linear_4_900)"/>
<path d="M71.1341 15.7017C69.0626 15.7017 67.0049 15.7017 64.9335 15.7017C64.0634 15.7017 63.9668 15.6189 63.9668 14.7626C63.9668 10.6059 63.9668 6.44916 63.9668 2.30623C63.9668 2.04385 63.8425 1.68479 64.1739 1.57431C64.4363 1.49146 64.5882 1.82289 64.7539 1.98861C69.0764 6.29726 73.385 10.6197 77.7075 14.9422C77.8732 15.1079 78.2047 15.2598 78.0804 15.536C77.9699 15.7984 77.6385 15.7017 77.3899 15.7017C75.3184 15.7017 73.2193 15.7017 71.1341 15.7017Z" fill="url(#paint2_linear_4_900)"/>
</g>
<defs>
<linearGradient id="paint0_linear_4_900" x1="-0.013916" y1="40.0017" x2="79.7099" y2="40.0017" gradientUnits="userSpaceOnUse">
<stop stop-color="#FCEABB"/>
<stop offset="1" stop-color="#F8B500"/>
</linearGradient>
<linearGradient id="paint1_linear_4_900" x1="-0.013916" y1="40.0017" x2="79.7099" y2="40.0017" gradientUnits="userSpaceOnUse">
<stop stop-color="#FCEABB"/>
<stop offset="1" stop-color="#F8B500"/>
</linearGradient>
<linearGradient id="paint2_linear_4_900" x1="-0.013916" y1="40.0017" x2="79.7099" y2="40.0017" gradientUnits="userSpaceOnUse">
<stop stop-color="#FCEABB"/>
<stop offset="1" stop-color="#F8B500"/>
</linearGradient>
<clipPath id="clip0_4_900">
<rect width="79.71" height="80" fill="white"/>
</clipPath>
</defs>
</svg>
