<svg width="81" height="80" viewBox="0 0 81 80" fill="none" xmlns="http://www.w3.org/2000/svg">
<g opacity="0.7" clip-path="url(#clip0_4_933)">
<path d="M1.70038 79.9861C0.0691341 79.1567 -0.373237 78.0784 0.317968 76.3642C1.07829 74.4703 2.21187 72.7976 3.58045 71.277C3.98135 70.8208 4.52049 70.6273 5.11493 70.5858C5.39141 70.572 5.66789 70.572 5.94437 70.572C28.7126 70.572 51.4809 70.5858 74.2492 70.5443C75.5901 70.5443 76.5302 71.0143 77.2905 72.0649C78.3964 73.5994 79.4194 75.1754 80.1106 76.9448C80.1106 77.8434 80.0968 78.742 80.1244 79.6405C80.1382 79.9447 80.0691 80.0414 79.765 79.9861C79.682 79.9723 79.5853 79.9861 79.4885 79.9861C53.5407 79.9861 27.6205 79.9861 1.70038 79.9861Z" fill="url(#paint0_linear_4_933)"/>
<path d="M80.083 24.0954C79.6682 25.0216 79.3779 25.9893 78.9217 26.8878C77.9126 28.8509 76.6408 30.6065 75.1339 32.2101C74.7054 32.6663 74.1663 32.9013 73.5442 32.9428C73.2262 32.9566 72.8944 32.9566 72.5765 32.9566C50.9833 32.9566 29.39 32.9428 7.78298 32.9843C6.34527 32.9843 5.22552 32.6663 4.29931 31.5051C2.57129 29.3485 1.03682 27.109 0.207375 24.4548C-0.0552826 23.5977 1.37687e-05 23.5424 0.870931 23.5424C27.0952 23.5424 53.3057 23.5424 79.53 23.5424C79.7097 23.5424 79.9033 23.5562 80.083 23.5701C80.083 23.7221 80.083 23.9157 80.083 24.0954Z" fill="url(#paint1_linear_4_933)"/>
<path d="M78.3273 18.8422C52.8219 18.8422 27.3026 18.8422 1.78332 18.8422C1.81097 18.5657 2.03215 18.5519 2.1704 18.469C5.2117 16.9483 8.26682 15.4553 11.3219 13.9347C13.8656 12.6629 16.4092 11.3634 18.9528 10.0916C21.4827 8.83358 24.0125 7.57559 26.5423 6.3176C30.3854 4.39605 34.2561 2.51597 38.0577 0.525304C39.4954 -0.221197 40.7811 -0.1659 42.1635 0.580601C45.2048 2.21184 48.3152 3.69102 51.398 5.21167C55.5176 7.24381 59.5957 9.3589 63.7153 11.4049C68.1943 13.6444 72.7009 15.8424 77.1938 18.0543C77.5808 18.2478 77.9541 18.469 78.3412 18.6763C78.355 18.7316 78.3411 18.7869 78.3273 18.8422Z" fill="url(#paint2_linear_4_933)"/>
<path d="M9.40039 51.7435C9.40039 47.3337 9.41422 42.9099 9.38657 38.5001C9.38657 37.8227 9.56628 37.5738 10.2713 37.5877C14.46 37.6153 18.6349 37.6153 22.8236 37.5877C23.4319 37.5877 23.6669 37.7674 23.6669 38.4033C23.653 47.306 23.653 56.1949 23.6669 65.0976C23.6669 65.7059 23.501 65.9547 22.8512 65.9409C18.6487 65.9132 14.4324 65.9132 10.2298 65.9409C9.53863 65.9409 9.38657 65.6782 9.38657 65.0561C9.41422 60.6186 9.40039 56.1811 9.40039 51.7435Z" fill="url(#paint3_linear_4_933)"/>
<path d="M70.7241 51.8403C70.7241 56.2364 70.7241 60.6186 70.7241 65.0147C70.7241 65.9271 70.7102 65.9409 69.7978 65.9409C65.6644 65.9409 61.5172 65.9409 57.3838 65.9409C56.4714 65.9409 56.4576 65.9271 56.4576 65.0147C56.4576 56.1811 56.4576 47.3613 56.4576 38.5277C56.4576 37.6153 56.4714 37.6015 57.3838 37.6015C61.5172 37.6015 65.6644 37.6015 69.7978 37.6015C70.7102 37.6015 70.7241 37.6153 70.7241 38.5277C70.7241 42.9652 70.7241 47.4028 70.7241 51.8403Z" fill="url(#paint4_linear_4_933)"/>
<path d="M47.1263 51.8403C47.1263 56.2364 47.1263 60.6186 47.1263 65.0147C47.1263 65.9271 47.1125 65.9409 46.2001 65.9409C42.1082 65.9409 38.0163 65.9409 33.9243 65.9409C33.0119 65.9409 32.9981 65.9271 32.9981 65.0147C32.9981 56.1811 32.9981 47.3613 32.9981 38.5277C32.9981 37.6153 33.0119 37.6015 33.9243 37.6015C38.0163 37.6015 42.1082 37.6015 46.2001 37.6015C47.1125 37.6015 47.1263 37.6153 47.1263 38.5277C47.1263 42.9514 47.1263 47.389 47.1263 51.8403Z" fill="url(#paint5_linear_4_933)"/>
</g>
<defs>
<linearGradient id="paint0_linear_4_933" x1="0.00341797" y1="39.9966" x2="80.1261" y2="39.9966" gradientUnits="userSpaceOnUse">
<stop stop-color="#FCEABB"/>
<stop offset="1" stop-color="#F8B500"/>
</linearGradient>
<linearGradient id="paint1_linear_4_933" x1="0.00341797" y1="39.9966" x2="80.1261" y2="39.9966" gradientUnits="userSpaceOnUse">
<stop stop-color="#FCEABB"/>
<stop offset="1" stop-color="#F8B500"/>
</linearGradient>
<linearGradient id="paint2_linear_4_933" x1="0.00341797" y1="39.9966" x2="80.1261" y2="39.9966" gradientUnits="userSpaceOnUse">
<stop stop-color="#FCEABB"/>
<stop offset="1" stop-color="#F8B500"/>
</linearGradient>
<linearGradient id="paint3_linear_4_933" x1="0.00341797" y1="39.9966" x2="80.1261" y2="39.9966" gradientUnits="userSpaceOnUse">
<stop stop-color="#FCEABB"/>
<stop offset="1" stop-color="#F8B500"/>
</linearGradient>
<linearGradient id="paint4_linear_4_933" x1="0.00341797" y1="39.9966" x2="80.1261" y2="39.9966" gradientUnits="userSpaceOnUse">
<stop stop-color="#FCEABB"/>
<stop offset="1" stop-color="#F8B500"/>
</linearGradient>
<linearGradient id="paint5_linear_4_933" x1="0.00341797" y1="39.9966" x2="80.1261" y2="39.9966" gradientUnits="userSpaceOnUse">
<stop stop-color="#FCEABB"/>
<stop offset="1" stop-color="#F8B500"/>
</linearGradient>
<clipPath id="clip0_4_933">
<rect width="80.0968" height="80" fill="white"/>
</clipPath>
</defs>
</svg>
